# xmcd
#
# Track frame offsets: 
#        150
#        14756
#        28294
#        43806
#        82635
#        95404
#        116575
#        143270
#        161165
#        172515
#        192536
#        219690
#        237680
#        265866
#        289909
#        312257
#        333220
#
# Disc length: 4765 seconds
#
# Revision: 0
# Processed by: cddbd v1.5.2PL0 Copyright (c) Steve Scherf et al.
# Submitted via: ExactAudioCopy v1.3
#
DISCID=f0129b11
DTITLE=Various Artist - Akella Presents - vol.132 - Rockin' Blues  CD
DTITLE=2
DYEAR=2018
DGENRE=Blues
TTITLE0=Fernando Noronha and Black Soul - Shining Gold
TTITLE1=Eric Burdon - Forty Days And Forty Nights
TTITLE2=Frank Raven - The Jinx Is On Me
TTITLE3=Chris Beard - Somebody's Sleeping
TTITLE4=Scott Sharrard and the Brickyard Band - Love Like Kerosene
TTITLE5=Coyote Kings - Trouble
TTITLE6=Bobby Mack - Heart Of A Lonely Man
TTITLE7=Andre Christovam - Every Night and Every Day
TTITLE8=Bily Gibbons and The BFG's - Baby Please Don't Go
TTITLE9=Bleu Jackson - Women, Whiskey, Guns And Knives
TTITLE10=Delta Moon - Death Letter
TTITLE11=Freddie and the Screamers - Both Sides Of The Fence
TTITLE12=The Blues Overdrive - Lay Your Burdon Down
TTITLE13=Jim McCarty Blues Band - Slow Driver
TTITLE14=Ray Fuller and the Blues Rockers - Sugar Daddy
TTITLE15=Timo Gross - Flying Bird
TTITLE16=Derrick Dove and the Peacekeepers - Dig My Grave
EXTD=
EXTT0=
EXTT1=
EXTT2=
EXTT3=
EXTT4=
EXTT5=
EXTT6=
EXTT7=
EXTT8=
EXTT9=
EXTT10=
EXTT11=
EXTT12=
EXTT13=
EXTT14=
EXTT15=
EXTT16=
PLAYORDER=
